# xmcd
#
# Track frame offsets: 
#        150
#        17250
#        34612
#        52800
#
# Disc length: 931 seconds
#
# Revision: 0
# Processed by: cddbd v1.5.2PL0 Copyright (c) Steve Scherf et al.
# Submitted via: ExactAudioCopy v1.0b3
#
DISCID=1d03a104
DTITLE=Vázquez Sounds - Vázquez Sounds
DYEAR=2011
DGENRE=Blues
TTITLE0=Rolling In The Deep
TTITLE1=Rolling In The Deep (Remix Version)
TTITLE2=All I Want For Christmas Is You
TTITLE3=Rolling In The Deep (Instrumental Versión)
EXTD=
EXTT0=
EXTT1=
EXTT2=
EXTT3=
PLAYORDER=
